# xmcd
#
# Track frame offsets:
# 150
# 7302
# 19596
# 38882
# 52154
# 65061
# 75473
# 92013
# 103416
# 117034
# 125545
# 137740
# 149951
# 158461
# 173576
# 184826
# 207363
# 220008
#
# Disc length: 3139 seconds
#
#
# Revision: 1
# Processed by: cddbd v1.5.1PL2 Copyright (c) Steve Scherf et al.
# Submitted via: FreeRIP 2.60 
#
DISCID=070c4112
DTITLE=The black water boys - The best of Bluegrass
DYEAR=2001
DGENRE=Bluegrass
TTITLE0=Duelling Banjos
TTITLE1=Black Mountain Rag
TTITLE2=Columbus Georgia
TTITLE3=My Dixie Darling
TTITLE4=Grandfather's Clock
TTITLE5=Earl's Breakdown
TTITLE6=Old Groundhog
TTITLE7=Blackbird
TTITLE8=The Battle of New Orleans
TTITLE9=Sailor's Hornpipe
TTITLE10=Mule Skinner Blues
TTITLE11=Shady Grove
TTITLE12=Old Rebel
TTITLE13=The Banks of The Ohio
TTITLE14=Blue Moon of Kentucky
TTITLE15=Reuben's Train
TTITLE16=Orange Blossom Special
TTITLE17=Auld Lang Syne
EXTD=
EXTT0=
EXTT1=
EXTT2=
EXTT3=
EXTT4=
EXTT5=
EXTT6=
EXTT7=
EXTT8=
EXTT9=
EXTT10=
EXTT11=
EXTT12=
EXTT13=
EXTT14=
EXTT15=
EXTT16=
EXTT17=
PLAYORDER=
